# xmcd
#
# Track frame offsets:
#	150
#	18862
#	32352
#	49072
#	64446
#	76738
#	89892
#	100754
#	115827
#	127011
#	135437
#	144436
#	155583
#	169571
#	175464
#	198237
#	212586
#	226680
#	239551
#	255626
#
# Disc length: 4171 seconds
#
# Revision: 1
# Processed by: cddbd v1.5.2PL0 Copyright (c) Steve Scherf et al.
# Submitted via: audiograbber 1.83.01
#
DISCID=0b104914
DTITLE=Hillgrass Bluebilly Records - Hiram and Huddie
DYEAR=2008
DGENRE=Bluegrass
TTITLE0=Possessed by Paul James - Banks of the Old Pontchartrain
TTITLE1=Scott H. Biram - Lost Highway
TTITLE2=Soda - Ramblin' Man
TTITLE3=William Elliott Whitmore - Mother Is Gone
TTITLE4=C.W. Stoneking - I'll Never Get Out Of This World Alive 
TTITLE5=Truckstop Honeymoon - Hownlin' At The Moon
TTITLE6=Jawbone - My Bucket's Gotta Hole In It
TTITLE7=Wayne "The Train" Hancock - Lovesick Blues
TTITLE8=Tom VandenAvond - I Can't Help It If I'm Still In Love With You
TTITLE9=Bob Log III - Settin' The Woods On Fire
TTITLE10=Reverend Peyton's Big Damn Band - Rock Island Line
TTITLE11=William Elliot Whitmore - The Gallis Pole
TTITLE12=C.W. Stoneking - In New Orleans
TTITLE13=Scott H. Biram - Go Down Old Hannah
TTITLE14=Possessed by Paul James - Bourgeois blues
TTITLE15=Tom VandenAvond - Ha Ha, This Way
TTITLE16=John McKelvy - Goodnight Irene
TTITLE17=Jawbone - Bottle Up And Go
TTITLE18=Soda - Old Riley
TTITLE19=Flathead - Pick A Bale Of Cotton
EXTD=
EXTT0=
EXTT1=
EXTT2=
EXTT3=
EXTT4=
EXTT5=
EXTT6=
EXTT7=
EXTT8=
EXTT9=
EXTT10=
EXTT11=
EXTT12=
EXTT13=
EXTT14=
EXTT15=
EXTT16=
EXTT17=
EXTT18=
EXTT19=
PLAYORDER=
